<svg width="111" height="44" viewBox="0 0 111 44" fill="none" xmlns="http://www.w3.org/2000/svg">
<rect width="12.58" height="43.6944" transform="translate(13.1826 43.6943) rotate(180)" fill="#3AE6D0"/>
<rect x="9.82129" y="36.7915" width="5.8578" height="5.8578" transform="rotate(180 9.82129 36.7915)" fill="black"/>
<rect x="9.82129" y="25.0688" width="5.8578" height="6.15069" transform="rotate(180 9.82129 25.0688)" fill="black"/>
<rect x="9.82129" y="13.0532" width="5.8578" height="6.15069" transform="rotate(180 9.82129 13.0532)" fill="black"/>
<rect width="77.7222" height="42.8056" transform="translate(16.5435 0.444336)" fill="white"/>
<path d="M21.718 21.1665V7.04984H24.4204L30.43 17.0122H28.9982L34.907 7.04984H37.5892L37.6295 21.1665H34.5642L34.544 11.7487H35.1087L30.3897 19.6742H28.9175L24.0977 11.7487H24.7834V21.1665H21.718ZM47.8354 21.4085C46.7195 21.4085 45.6843 21.227 44.7298 20.864C43.7887 20.501 42.9685 19.9901 42.2694 19.3313C41.5838 18.6726 41.046 17.8995 40.6561 17.0122C40.2797 16.1248 40.0914 15.1568 40.0914 14.1082C40.0914 13.0595 40.2797 12.0915 40.6561 11.2042C41.046 10.3168 41.5905 9.54378 42.2896 8.885C42.9887 8.22622 43.8088 7.71534 44.7499 7.35234C45.691 6.98934 46.7128 6.80784 47.8153 6.80784C48.9312 6.80784 49.9529 6.98934 50.8806 7.35234C51.8217 7.71534 52.6351 8.22622 53.3208 8.885C54.0199 9.54378 54.5644 10.3168 54.9543 11.2042C55.3442 12.0781 55.5391 13.0461 55.5391 14.1082C55.5391 15.1568 55.3442 16.1316 54.9543 17.0323C54.5644 17.9197 54.0199 18.6927 53.3208 19.3515C52.6351 19.9968 51.8217 20.501 50.8806 20.864C49.9529 21.227 48.9379 21.4085 47.8354 21.4085ZM47.8153 18.6255C48.4472 18.6255 49.0253 18.5179 49.5496 18.3028C50.0874 18.0877 50.5579 17.7785 50.9613 17.3752C51.3646 16.9718 51.6738 16.4946 51.8889 15.9433C52.1175 15.3921 52.2318 14.7804 52.2318 14.1082C52.2318 13.4359 52.1175 12.8242 51.8889 12.273C51.6738 11.7218 51.3646 11.2445 50.9613 10.8412C50.5714 10.4378 50.1075 10.1286 49.5698 9.9135C49.032 9.69839 48.4472 9.59084 47.8153 9.59084C47.1834 9.59084 46.5985 9.69839 46.0608 9.9135C45.5364 10.1286 45.0726 10.4378 44.6693 10.8412C44.2659 11.2445 43.95 11.7218 43.7214 12.273C43.5063 12.8242 43.3988 13.4359 43.3988 14.1082C43.3988 14.7669 43.5063 15.3787 43.7214 15.9433C43.95 16.4946 44.2592 16.9718 44.6491 17.3752C45.0524 17.7785 45.523 18.0877 46.0608 18.3028C46.5985 18.5179 47.1834 18.6255 47.8153 18.6255ZM61.7764 21.1665L55.6861 7.04984H59.2153L64.5393 19.5532H62.4621L67.8668 7.04984H71.1136L65.0031 21.1665H61.7764ZM72.2922 21.1665V7.04984H75.5592V21.1665H72.2922ZM81.9143 12.7368H88.7104V15.2778H81.9143V12.7368ZM82.1563 18.5448H89.8398V21.1665H78.9094V7.04984H89.5776V9.6715H82.1563V18.5448Z" fill="black"/>
<path d="M22.0252 36.5278V24.7639H26.6131C27.6438 24.7639 28.5233 24.9264 29.2515 25.2513C29.9798 25.5762 30.54 26.0468 30.9321 26.663C31.3242 27.2792 31.5203 28.013 31.5203 28.8645C31.5203 29.716 31.3242 30.4498 30.9321 31.066C30.54 31.671 29.9798 32.1416 29.2515 32.4777C28.5233 32.8026 27.6438 32.9651 26.6131 32.9651H22.9495L23.7057 32.1752V36.5278H22.0252ZM23.7057 32.3432L22.9495 31.503H26.5627C27.6382 31.503 28.4505 31.2733 28.9995 30.8139C29.5596 30.3546 29.8397 29.7048 29.8397 28.8645C29.8397 28.0242 29.5596 27.3744 28.9995 26.9151C28.4505 26.4557 27.6382 26.226 26.5627 26.226H22.9495L23.7057 25.3857V32.3432ZM33.9893 36.5278V24.7639H38.5772C39.6079 24.7639 40.4874 24.9264 41.2157 25.2513C41.9439 25.5762 42.5041 26.0468 42.8962 26.663C43.2883 27.2792 43.4844 28.013 43.4844 28.8645C43.4844 29.716 43.2883 30.4498 42.8962 31.066C42.5041 31.671 41.9439 32.136 41.2157 32.4609C40.4874 32.7858 39.6079 32.9482 38.5772 32.9482H34.9136L35.6698 32.1752V36.5278H33.9893ZM41.8543 36.5278L38.8629 32.2592H40.6611L43.6861 36.5278H41.8543ZM35.6698 32.3432L34.9136 31.5198H38.5268C39.6023 31.5198 40.4146 31.2901 40.9636 30.8307C41.5238 30.3602 41.8038 29.7048 41.8038 28.8645C41.8038 28.0242 41.5238 27.3744 40.9636 26.9151C40.4146 26.4557 39.6023 26.226 38.5268 26.226H34.9136L35.6698 25.3857V32.3432ZM51.5101 36.6623C50.6138 36.6623 49.7791 36.511 49.0061 36.2085C48.2442 35.906 47.5832 35.4859 47.023 34.9481C46.4628 34.3991 46.0259 33.7605 45.7122 33.0323C45.3985 32.304 45.2416 31.5086 45.2416 30.6459C45.2416 29.7832 45.3985 28.9877 45.7122 28.2595C46.0259 27.5313 46.4628 26.8982 47.023 26.3605C47.5832 25.8115 48.2442 25.3857 49.0061 25.0832C49.7679 24.7807 50.6026 24.6295 51.5101 24.6295C52.4064 24.6295 53.2299 24.7807 53.9805 25.0832C54.7424 25.3745 55.4034 25.7947 55.9636 26.3437C56.535 26.8814 56.9719 27.5145 57.2744 28.2427C57.5881 28.9709 57.745 29.772 57.745 30.6459C57.745 31.5198 57.5881 32.3208 57.2744 33.0491C56.9719 33.7773 56.535 34.4159 55.9636 34.9649C55.4034 35.5027 54.7424 35.9228 53.9805 36.2253C53.2299 36.5166 52.4064 36.6623 51.5101 36.6623ZM51.5101 35.1666C52.1599 35.1666 52.7593 35.0545 53.3083 34.8305C53.8685 34.6064 54.3502 34.2927 54.7536 33.8894C55.1681 33.4748 55.4874 32.9931 55.7115 32.4441C55.9468 31.8951 56.0644 31.2957 56.0644 30.6459C56.0644 29.9961 55.9468 29.3967 55.7115 28.8477C55.4874 28.2987 55.1681 27.8226 54.7536 27.4192C54.3502 27.0047 53.8685 26.6854 53.3083 26.4613C52.7593 26.2372 52.1599 26.1252 51.5101 26.1252C50.8491 26.1252 50.2385 26.2372 49.6783 26.4613C49.1293 26.6854 48.6476 27.0047 48.233 27.4192C47.8185 27.8226 47.4936 28.2987 47.2583 28.8477C47.0342 29.3967 46.9222 29.9961 46.9222 30.6459C46.9222 31.2957 47.0342 31.8951 47.2583 32.4441C47.4936 32.9931 47.8185 33.4748 48.233 33.8894C48.6476 34.2927 49.1293 34.6064 49.6783 34.8305C50.2385 35.0545 50.8491 35.1666 51.5101 35.1666Z" fill="black"/>
<rect width="12.58" height="43.6944" transform="translate(110.207 43.6943) rotate(180)" fill="#3AE6D0"/>
<rect x="106.846" y="36.7915" width="5.8578" height="5.8578" transform="rotate(180 106.846 36.7915)" fill="black"/>
<rect x="106.846" y="25.0688" width="5.8578" height="6.15069" transform="rotate(180 106.846 25.0688)" fill="black"/>
<rect x="106.846" y="13.0532" width="5.8578" height="6.15069" transform="rotate(180 106.846 13.0532)" fill="black"/>
</svg>
