<svg width="111" height="43" viewBox="0 0 111 43" fill="none" xmlns="http://www.w3.org/2000/svg">
<rect width="42.7334" height="12.8729" transform="translate(0 42.7695) rotate(-90)" fill="white"/>
<rect x="3.50732" y="36.0474" width="5.8578" height="5.8578" transform="rotate(-90 3.50732 36.0474)" fill="black"/>
<rect x="3.36133" y="24.3315" width="5.8578" height="6.15069" transform="rotate(-90 3.36133 24.3315)" fill="black"/>
<rect x="3.36133" y="12.6162" width="5.8578" height="6.15069" transform="rotate(-90 3.36133 12.6162)" fill="black"/>
<rect width="77.7222" height="42.8056" transform="translate(16.2339)" fill="white"/>
<path d="M21.4084 20.7222V6.6055H24.1108L30.1205 16.5678H28.6886L34.5975 6.6055H37.2796L37.32 20.7222H34.2546L34.2345 11.3043H34.7991L30.0801 19.2298H28.6079L23.7881 11.3043H24.4738V20.7222H21.4084ZM47.5259 20.9642C46.41 20.9642 45.3747 20.7827 44.4202 20.4197C43.4791 20.0567 42.659 19.5458 41.9599 18.887C41.2742 18.2282 40.7364 17.4552 40.3465 16.5678C39.9701 15.6805 39.7819 14.7125 39.7819 13.6638C39.7819 12.6152 39.9701 11.6472 40.3465 10.7598C40.7364 9.8725 41.2809 9.09944 41.98 8.44067C42.6791 7.78189 43.4992 7.271 44.4404 6.908C45.3815 6.545 46.4032 6.3635 47.5057 6.3635C48.6216 6.3635 49.6434 6.545 50.571 6.908C51.5121 7.271 52.3255 7.78189 53.0112 8.44067C53.7103 9.09944 54.2548 9.8725 54.6447 10.7598C55.0346 11.6337 55.2295 12.6017 55.2295 13.6638C55.2295 14.7125 55.0346 15.6872 54.6447 16.588C54.2548 17.4753 53.7103 18.2484 53.0112 18.9072C52.3255 19.5525 51.5121 20.0567 50.571 20.4197C49.6434 20.7827 48.6283 20.9642 47.5259 20.9642ZM47.5057 18.1812C48.1376 18.1812 48.7157 18.0736 49.24 17.8585C49.7778 17.6434 50.2484 17.3342 50.6517 16.9308C51.055 16.5275 51.3642 16.0502 51.5794 15.499C51.8079 14.9478 51.9222 14.3361 51.9222 13.6638C51.9222 12.9916 51.8079 12.3799 51.5794 11.8287C51.3642 11.2774 51.055 10.8002 50.6517 10.3968C50.2618 9.9935 49.798 9.68428 49.2602 9.46917C48.7224 9.25406 48.1376 9.1465 47.5057 9.1465C46.8738 9.1465 46.289 9.25406 45.7512 9.46917C45.2269 9.68428 44.763 9.9935 44.3597 10.3968C43.9564 10.8002 43.6404 11.2774 43.4119 11.8287C43.1967 12.3799 43.0892 12.9916 43.0892 13.6638C43.0892 14.3226 43.1967 14.9343 43.4119 15.499C43.6404 16.0502 43.9496 16.5275 44.3395 16.9308C44.7429 17.3342 45.2134 17.6434 45.7512 17.8585C46.289 18.0736 46.8738 18.1812 47.5057 18.1812ZM61.4669 20.7222L55.3765 6.6055H58.9057L64.2297 19.1088H62.1525L67.5572 6.6055H70.804L64.6935 20.7222H61.4669ZM71.9827 20.7222V6.6055H75.2497V20.7222H71.9827ZM81.6047 12.2925H88.4009V14.8335H81.6047V12.2925ZM81.8467 18.1005H89.5302V20.7222H78.5999V6.6055H89.268V9.22717H81.8467V18.1005Z" fill="black"/>
<path d="M21.9407 36.0835V24.3196H26.3437C27.3409 24.3196 28.198 24.4821 28.915 24.807C29.632 25.1207 30.181 25.58 30.5619 26.185C30.9541 26.7788 31.1501 27.5015 31.1501 28.3529C31.1501 29.182 30.9541 29.8991 30.5619 30.5041C30.181 31.0978 29.632 31.5572 28.915 31.8821C28.198 32.207 27.3409 32.3695 26.3437 32.3695H22.6297L23.1843 31.7813V36.0835H21.9407ZM23.1843 31.8821L22.6297 31.2771H26.3101C27.4865 31.2771 28.3772 31.025 28.9822 30.5209C29.5984 30.0055 29.9065 29.2828 29.9065 28.3529C29.9065 27.4118 29.5984 26.6836 28.9822 26.1682C28.3772 25.6528 27.4865 25.3952 26.3101 25.3952H22.6297L23.1843 24.807V31.8821ZM33.8391 36.0835V24.3196H38.2422C39.2393 24.3196 40.0964 24.4821 40.8135 24.807C41.5305 25.1207 42.0795 25.58 42.4604 26.185C42.8525 26.7788 43.0486 27.5015 43.0486 28.3529C43.0486 29.182 42.8525 29.8991 42.4604 30.5041C42.0795 31.0978 41.5305 31.5572 40.8135 31.8821C40.0964 32.1958 39.2393 32.3527 38.2422 32.3527H34.5282L35.0828 31.7813V36.0835H33.8391ZM41.8722 36.0835L38.8472 31.8149H40.1916L43.2335 36.0835H41.8722ZM35.0828 31.8821L34.5282 31.2939H38.2086C39.385 31.2939 40.2757 31.0362 40.8807 30.5209C41.4969 30.0055 41.805 29.2828 41.805 28.3529C41.805 27.4118 41.4969 26.6836 40.8807 26.1682C40.2757 25.6528 39.385 25.3952 38.2086 25.3952H34.5282L35.0828 24.807V31.8821ZM51.1263 36.1843C50.2412 36.1843 49.4177 36.0387 48.6559 35.7474C47.9052 35.4449 47.2498 35.0247 46.6896 34.487C46.1406 33.938 45.7093 33.305 45.3956 32.5879C45.0931 31.8597 44.9418 31.0642 44.9418 30.2016C44.9418 29.3389 45.0931 28.549 45.3956 27.832C45.7093 27.1037 46.1406 26.4707 46.6896 25.9329C47.2498 25.384 47.9052 24.9638 48.6559 24.6725C49.4065 24.37 50.23 24.2188 51.1263 24.2188C52.0114 24.2188 52.8292 24.37 53.5799 24.6725C54.3305 24.9638 54.9804 25.3784 55.5293 25.9161C56.0895 26.4539 56.5209 27.0869 56.8234 27.8152C57.1371 28.5434 57.2939 29.3389 57.2939 30.2016C57.2939 31.0642 57.1371 31.8597 56.8234 32.5879C56.5209 33.3162 56.0895 33.9492 55.5293 34.487C54.9804 35.0247 54.3305 35.4449 53.5799 35.7474C52.8292 36.0387 52.0114 36.1843 51.1263 36.1843ZM51.1263 35.0752C51.8321 35.0752 52.4819 34.9575 53.0757 34.7222C53.6807 34.4758 54.2017 34.1341 54.6386 33.6971C55.0868 33.249 55.4341 32.7336 55.6806 32.151C55.9271 31.5572 56.0503 30.9074 56.0503 30.2016C56.0503 29.4957 55.9271 28.8515 55.6806 28.2689C55.4341 27.6751 55.0868 27.1597 54.6386 26.7228C54.2017 26.2747 53.6807 25.9329 53.0757 25.6977C52.4819 25.4512 51.8321 25.3279 51.1263 25.3279C50.4205 25.3279 49.765 25.4512 49.16 25.6977C48.555 25.9329 48.0285 26.2747 47.5803 26.7228C47.1434 27.1597 46.7961 27.6751 46.5384 28.2689C46.2919 28.8515 46.1686 29.4957 46.1686 30.2016C46.1686 30.8962 46.2919 31.5404 46.5384 32.1342C46.7961 32.728 47.1434 33.249 47.5803 33.6971C48.0285 34.1341 48.555 34.4758 49.16 34.7222C49.765 34.9575 50.4205 35.0752 51.1263 35.0752Z" fill="#231F20"/>
<rect width="42.7334" height="12.8729" transform="translate(97.3174 42.7695) rotate(-90)" fill="white"/>
<rect x="100.825" y="36.0474" width="5.8578" height="5.8578" transform="rotate(-90 100.825 36.0474)" fill="black"/>
<rect x="100.679" y="24.3315" width="5.8578" height="6.15069" transform="rotate(-90 100.679 24.3315)" fill="black"/>
<rect x="100.679" y="12.6162" width="5.8578" height="6.15069" transform="rotate(-90 100.679 12.6162)" fill="black"/>
</svg>
