<svg width="111" height="44" viewBox="0 0 111 44" fill="none" xmlns="http://www.w3.org/2000/svg">
<rect width="42.7334" height="12.8729" transform="translate(0 43.0752) rotate(-90)" fill="white"/>
<rect x="3.50732" y="36.353" width="5.8578" height="5.8578" transform="rotate(-90 3.50732 36.353)" fill="black"/>
<rect x="3.36133" y="24.6372" width="5.8578" height="6.15069" transform="rotate(-90 3.36133 24.6372)" fill="black"/>
<rect x="3.36133" y="12.9219" width="5.8578" height="6.15069" transform="rotate(-90 3.36133 12.9219)" fill="black"/>
<rect width="77.7222" height="42.8056" transform="translate(16.2339 0.305664)" fill="url(#paint0_linear_49_307)"/>
<path d="M21.408 21.0278V6.91116H24.1103L30.12 16.8735H28.6881L34.597 6.91116H37.2791L37.3195 21.0278H34.2541L34.234 11.61H34.7986L30.0796 19.5355H28.6075L23.7876 11.61H24.4733V21.0278H21.408ZM47.5254 21.2698C46.4095 21.2698 45.3743 21.0883 44.4197 20.7253C43.4786 20.3623 42.6585 19.8514 41.9594 19.1927C41.2737 18.5339 40.7359 17.7608 40.346 16.8735C39.9696 15.9862 39.7814 15.0182 39.7814 13.9695C39.7814 12.9208 39.9696 11.9528 40.346 11.0655C40.7359 10.1782 41.2804 9.40511 41.9795 8.74633C42.6786 8.08755 43.4988 7.57666 44.4399 7.21366C45.381 6.85066 46.4028 6.66916 47.5052 6.66916C48.6211 6.66916 49.6429 6.85066 50.5705 7.21366C51.5117 7.57666 52.325 8.08755 53.0107 8.74633C53.7098 9.40511 54.2543 10.1782 54.6442 11.0655C55.0341 11.9394 55.229 12.9074 55.229 13.9695C55.229 15.0182 55.0341 15.9929 54.6442 16.8937C54.2543 17.781 53.7098 18.5541 53.0107 19.2128C52.325 19.8582 51.5117 20.3623 50.5705 20.7253C49.6429 21.0883 48.6278 21.2698 47.5254 21.2698ZM47.5052 18.4868C48.1371 18.4868 48.7152 18.3793 49.2395 18.1642C49.7773 17.9491 50.2479 17.6398 50.6512 17.2365C51.0545 16.8332 51.3638 16.3559 51.5789 15.8047C51.8074 15.2534 51.9217 14.6417 51.9217 13.9695C51.9217 13.2973 51.8074 12.6856 51.5789 12.1343C51.3638 11.5831 51.0545 11.1058 50.6512 10.7025C50.2613 10.2992 49.7975 9.98994 49.2597 9.77483C48.7219 9.55972 48.1371 9.45216 47.5052 9.45216C46.8733 9.45216 46.2885 9.55972 45.7507 9.77483C45.2264 9.98994 44.7625 10.2992 44.3592 10.7025C43.9559 11.1058 43.6399 11.5831 43.4114 12.1343C43.1963 12.6856 43.0887 13.2973 43.0887 13.9695C43.0887 14.6283 43.1963 15.24 43.4114 15.8047C43.6399 16.3559 43.9491 16.8332 44.339 17.2365C44.7424 17.6398 45.2129 17.9491 45.7507 18.1642C46.2885 18.3793 46.8733 18.4868 47.5052 18.4868ZM61.4664 21.0278L55.376 6.91116H58.9052L64.2292 19.4145H62.152L67.5567 6.91116H70.8035L64.693 21.0278H61.4664ZM71.9822 21.0278V6.91116H75.2492V21.0278H71.9822ZM81.6042 12.5982H88.4004V15.1392H81.6042V12.5982ZM81.8462 18.4062H89.5297V21.0278H78.5994V6.91116H89.2675V9.53283H81.8462V18.4062Z" fill="black"/>
<path d="M21.1489 36.3892V24.6253H26.241C27.2941 24.6253 28.2016 24.7989 28.9635 25.1462C29.7254 25.4824 30.3135 25.9697 30.7281 26.6083C31.1426 27.2469 31.3499 28.0088 31.3499 28.8939C31.3499 29.7678 31.1426 30.524 30.7281 31.1626C30.3135 31.8012 29.7254 32.2942 28.9635 32.6415C28.2016 32.9776 27.2941 33.1457 26.241 33.1457H22.6614L23.8714 31.9189V36.3892H21.1489ZM23.8714 32.2214L22.6614 30.9274H26.0897C26.93 30.9274 27.5574 30.7481 27.972 30.3896C28.3865 30.0311 28.5938 29.5325 28.5938 28.8939C28.5938 28.2441 28.3865 27.7399 27.972 27.3814C27.5574 27.0229 26.93 26.8436 26.0897 26.8436H22.6614L23.8714 25.5496V32.2214ZM33.2936 36.3892V24.6253H38.3856C39.4388 24.6253 40.3463 24.7989 41.1081 25.1462C41.87 25.4824 42.4582 25.9697 42.8727 26.6083C43.2873 27.2469 43.4945 28.0088 43.4945 28.8939C43.4945 29.7678 43.2873 30.524 42.8727 31.1626C42.4582 31.79 41.87 32.2718 41.1081 32.6079C40.3463 32.944 39.4388 33.1121 38.3856 33.1121H34.8061L36.0161 31.9189V36.3892H33.2936ZM40.772 36.3892L37.8311 32.1205H40.7384L43.713 36.3892H40.772ZM36.0161 32.2214L34.8061 30.9442H38.2344C39.0747 30.9442 39.7021 30.7649 40.1166 30.4064C40.5311 30.0367 40.7384 29.5325 40.7384 28.8939C40.7384 28.2441 40.5311 27.7399 40.1166 27.3814C39.7021 27.0229 39.0747 26.8436 38.2344 26.8436H34.8061L36.0161 25.5496V32.2214ZM51.3654 36.5908C50.4355 36.5908 49.5728 36.4396 48.7774 36.1371C47.9931 35.8346 47.3097 35.4088 46.7271 34.8599C46.1557 34.3109 45.7076 33.6667 45.3827 32.9272C45.069 32.1878 44.9121 31.3811 44.9121 30.5072C44.9121 29.6333 45.069 28.8267 45.3827 28.0872C45.7076 27.3478 46.1613 26.7036 46.7439 26.1546C47.3265 25.6056 48.0099 25.1799 48.7942 24.8774C49.5784 24.5749 50.4299 24.4236 51.3486 24.4236C52.2785 24.4236 53.13 24.5749 53.9031 24.8774C54.6873 25.1799 55.3652 25.6056 55.9365 26.1546C56.5191 26.7036 56.9729 27.3478 57.2978 28.0872C57.6227 28.8155 57.7852 29.6221 57.7852 30.5072C57.7852 31.3811 57.6227 32.1934 57.2978 32.944C56.9729 33.6835 56.5191 34.3277 55.9365 34.8767C55.3652 35.4144 54.6873 35.8346 53.9031 36.1371C53.13 36.4396 52.2841 36.5908 51.3654 36.5908ZM51.3486 34.2717C51.8752 34.2717 52.357 34.182 52.7939 34.0028C53.2421 33.8235 53.6342 33.5658 53.9703 33.2297C54.3064 32.8936 54.5641 32.4959 54.7434 32.0365C54.9338 31.5772 55.029 31.0674 55.029 30.5072C55.029 29.947 54.9338 29.4373 54.7434 28.9779C54.5641 28.5186 54.3064 28.1208 53.9703 27.7847C53.6454 27.4486 53.2589 27.1909 52.8107 27.0117C52.3626 26.8324 51.8752 26.7428 51.3486 26.7428C50.8221 26.7428 50.3347 26.8324 49.8865 27.0117C49.4496 27.1909 49.0631 27.4486 48.727 27.7847C48.3909 28.1208 48.1276 28.5186 47.9371 28.9779C47.7578 29.4373 47.6682 29.947 47.6682 30.5072C47.6682 31.0562 47.7578 31.566 47.9371 32.0365C48.1276 32.4959 48.3853 32.8936 48.7102 33.2297C49.0463 33.5658 49.4384 33.8235 49.8865 34.0028C50.3347 34.182 50.8221 34.2717 51.3486 34.2717Z" fill="black"/>
<rect width="42.7334" height="12.8729" transform="translate(97.3174 43.0752) rotate(-90)" fill="white"/>
<rect x="100.825" y="36.353" width="5.8578" height="5.8578" transform="rotate(-90 100.825 36.353)" fill="black"/>
<rect x="100.679" y="24.6372" width="5.8578" height="6.15069" transform="rotate(-90 100.679 24.6372)" fill="black"/>
<rect x="100.679" y="12.9219" width="5.8578" height="6.15069" transform="rotate(-90 100.679 12.9219)" fill="black"/>
<defs>
<linearGradient id="paint0_linear_49_307" x1="9.42621" y1="-0.366187" x2="73.5681" y2="40.3892" gradientUnits="userSpaceOnUse">
<stop stop-color="#3AE6D0"/>
<stop offset="1" stop-color="#8599FC"/>
</linearGradient>
</defs>
</svg>
