<svg width="111" height="44" viewBox="0 0 111 44" fill="none" xmlns="http://www.w3.org/2000/svg">
<rect width="12.58" height="43.6944" transform="translate(13.0283 44) rotate(180)" fill="white"/>
<rect x="9.66748" y="37.0972" width="5.8578" height="5.8578" transform="rotate(180 9.66748 37.0972)" fill="black"/>
<rect x="9.66748" y="25.3745" width="5.8578" height="6.15069" transform="rotate(180 9.66748 25.3745)" fill="black"/>
<rect x="9.66748" y="13.3589" width="5.8578" height="6.15069" transform="rotate(180 9.66748 13.3589)" fill="black"/>
<rect width="77.7222" height="42.8056" transform="translate(16.3892 0.75)" fill="#3AE6D0"/>
<path d="M21.5632 21.4722V7.3555H24.2656L30.2752 17.3178H28.8434L34.7522 7.3555H37.4344L37.4747 21.4722H34.4094L34.3892 12.0543H34.9539L30.2349 19.9798H28.7627L23.9429 12.0543H24.6286V21.4722H21.5632ZM47.6806 21.7142C46.5648 21.7142 45.5295 21.5327 44.575 21.1697C43.6339 20.8067 42.8138 20.2958 42.1146 19.637C41.429 18.9782 40.8912 18.2052 40.5013 17.3178C40.1249 16.4305 39.9366 15.4625 39.9366 14.4138C39.9366 13.3652 40.1249 12.3972 40.5013 11.5098C40.8912 10.6225 41.4357 9.84944 42.1348 9.19067C42.8339 8.53189 43.654 8.021 44.5951 7.658C45.5363 7.295 46.558 7.1135 47.6605 7.1135C48.7764 7.1135 49.7981 7.295 50.7258 7.658C51.6669 8.021 52.4803 8.53189 53.166 9.19067C53.8651 9.84944 54.4096 10.6225 54.7995 11.5098C55.1894 12.3837 55.3843 13.3517 55.3843 14.4138C55.3843 15.4625 55.1894 16.4372 54.7995 17.338C54.4096 18.2253 53.8651 18.9984 53.166 19.6572C52.4803 20.3025 51.6669 20.8067 50.7258 21.1697C49.7981 21.5327 48.7831 21.7142 47.6806 21.7142ZM47.6605 18.9312C48.2924 18.9312 48.8705 18.8236 49.3948 18.6085C49.9326 18.3934 50.4031 18.0842 50.8065 17.6808C51.2098 17.2775 51.519 16.8002 51.7341 16.249C51.9627 15.6978 52.077 15.0861 52.077 14.4138C52.077 13.7416 51.9627 13.1299 51.7341 12.5787C51.519 12.0274 51.2098 11.5502 50.8065 11.1468C50.4166 10.7435 49.9528 10.4343 49.415 10.2192C48.8772 10.0041 48.2924 9.8965 47.6605 9.8965C47.0286 9.8965 46.4438 10.0041 45.906 10.2192C45.3816 10.4343 44.9178 10.7435 44.5145 11.1468C44.1111 11.5502 43.7952 12.0274 43.5666 12.5787C43.3515 13.1299 43.244 13.7416 43.244 14.4138C43.244 15.0726 43.3515 15.6843 43.5666 16.249C43.7952 16.8002 44.1044 17.2775 44.4943 17.6808C44.8976 18.0842 45.3682 18.3934 45.906 18.6085C46.4438 18.8236 47.0286 18.9312 47.6605 18.9312ZM61.6216 21.4722L55.5313 7.3555H59.0605L64.3845 19.8588H62.3073L67.712 7.3555H70.9588L64.8483 21.4722H61.6216ZM72.1375 21.4722V7.3555H75.4045V21.4722H72.1375ZM81.7595 13.0425H88.5556V15.5835H81.7595V13.0425ZM82.0015 18.8505H89.685V21.4722H78.7546V7.3555H89.4228V9.97717H82.0015V18.8505Z" fill="black"/>
<path d="M21.3042 36.8335V25.0696H26.3963C27.4494 25.0696 28.3569 25.2433 29.1188 25.5906C29.8806 25.9267 30.4688 26.4141 30.8834 27.0527C31.2979 27.6913 31.5052 28.4531 31.5052 29.3382C31.5052 30.2121 31.2979 30.9684 30.8834 31.607C30.4688 32.2456 29.8806 32.7385 29.1188 33.0859C28.3569 33.422 27.4494 33.59 26.3963 33.59H22.8167L24.0267 32.3632V36.8335H21.3042ZM24.0267 32.6657L22.8167 31.3717H26.245C27.0853 31.3717 27.7127 31.1924 28.1272 30.8339C28.5418 30.4754 28.7491 29.9768 28.7491 29.3382C28.7491 28.6884 28.5418 28.1842 28.1272 27.8257C27.7127 27.4672 27.0853 27.2879 26.245 27.2879H22.8167L24.0267 25.9939V32.6657ZM33.4488 36.8335V25.0696H38.5409C39.5941 25.0696 40.5016 25.2433 41.2634 25.5906C42.0253 25.9267 42.6135 26.4141 43.028 27.0527C43.4425 27.6913 43.6498 28.4531 43.6498 29.3382C43.6498 30.2121 43.4425 30.9684 43.028 31.607C42.6135 32.2344 42.0253 32.7161 41.2634 33.0522C40.5016 33.3884 39.5941 33.5564 38.5409 33.5564H34.9613L36.1713 32.3632V36.8335H33.4488ZM40.9273 36.8335L37.9863 32.5649H40.8937L43.8683 36.8335H40.9273ZM36.1713 32.6657L34.9613 31.3885H38.3897C39.2299 31.3885 39.8573 31.2092 40.2719 30.8507C40.6864 30.481 40.8937 29.9768 40.8937 29.3382C40.8937 28.6884 40.6864 28.1842 40.2719 27.8257C39.8573 27.4672 39.2299 27.2879 38.3897 27.2879H34.9613L36.1713 25.9939V32.6657ZM51.5207 37.0352C50.5908 37.0352 49.7281 36.8839 48.9327 36.5814C48.1484 36.2789 47.465 35.8532 46.8824 35.3042C46.311 34.7552 45.8628 34.111 45.5379 33.3716C45.2242 32.6321 45.0674 31.8254 45.0674 30.9516C45.0674 30.0777 45.2242 29.271 45.5379 28.5316C45.8628 27.7921 46.3166 27.1479 46.8992 26.5989C47.4818 26.0499 48.1652 25.6242 48.9495 25.3217C49.7337 25.0192 50.5852 24.8679 51.5039 24.8679C52.4338 24.8679 53.2853 25.0192 54.0583 25.3217C54.8426 25.6242 55.5204 26.0499 56.0918 26.5989C56.6744 27.1479 57.1282 27.7921 57.4531 28.5316C57.778 29.2598 57.9404 30.0665 57.9404 30.9516C57.9404 31.8254 57.778 32.6377 57.4531 33.3884C57.1282 34.1278 56.6744 34.772 56.0918 35.321C55.5204 35.8588 54.8426 36.2789 54.0583 36.5814C53.2853 36.8839 52.4394 37.0352 51.5207 37.0352ZM51.5039 34.716C52.0305 34.716 52.5122 34.6264 52.9492 34.4471C53.3973 34.2678 53.7895 34.0102 54.1256 33.6741C54.4617 33.3379 54.7194 32.9402 54.8986 32.4809C55.0891 32.0215 55.1843 31.5117 55.1843 30.9516C55.1843 30.3914 55.0891 29.8816 54.8986 29.4222C54.7194 28.9629 54.4617 28.5652 54.1256 28.2291C53.8007 27.8929 53.4141 27.6353 52.966 27.456C52.5178 27.2767 52.0305 27.1871 51.5039 27.1871C50.9773 27.1871 50.49 27.2767 50.0418 27.456C49.6049 27.6353 49.2183 27.8929 48.8822 28.2291C48.5461 28.5652 48.2828 28.9629 48.0924 29.4222C47.9131 29.8816 47.8235 30.3914 47.8235 30.9516C47.8235 31.5005 47.9131 32.0103 48.0924 32.4809C48.2828 32.9402 48.5405 33.3379 48.8654 33.6741C49.2015 34.0102 49.5937 34.2678 50.0418 34.4471C50.49 34.6264 50.9773 34.716 51.5039 34.716Z" fill="black"/>
<rect width="12.58" height="43.6944" transform="translate(110.053 44) rotate(180)" fill="white"/>
<rect x="106.691" y="37.0977" width="5.8578" height="5.8578" transform="rotate(180 106.691 37.0977)" fill="black"/>
<rect x="106.691" y="25.3745" width="5.8578" height="6.15069" transform="rotate(180 106.691 25.3745)" fill="black"/>
<rect x="106.691" y="13.3589" width="5.8578" height="6.15069" transform="rotate(180 106.691 13.3589)" fill="black"/>
</svg>
