<svg width="111" height="43" viewBox="0 0 111 43" fill="none" xmlns="http://www.w3.org/2000/svg">
<rect width="42.7334" height="12.8729" transform="translate(0.80127 42.7695) rotate(-90)" fill="white"/>
<rect x="4.30859" y="36.0474" width="5.8578" height="5.8578" transform="rotate(-90 4.30859 36.0474)" fill="black"/>
<rect x="4.1626" y="24.3315" width="5.8578" height="6.15069" transform="rotate(-90 4.1626 24.3315)" fill="black"/>
<rect x="4.1626" y="12.6162" width="5.8578" height="6.15069" transform="rotate(-90 4.1626 12.6162)" fill="black"/>
<rect width="77.7222" height="42.8056" transform="translate(17.0352)" fill="url(#paint0_linear_49_392)"/>
<path d="M22.2092 20.7222V6.6055H24.9116L30.9212 16.5678H29.4894L35.3982 6.6055H38.0804L38.1207 20.7222H35.0554L35.0352 11.3043H35.5999L30.8809 19.2298H29.4087L24.5889 11.3043H25.2746V20.7222H22.2092ZM48.3266 20.9642C47.2108 20.9642 46.1755 20.7827 45.221 20.4197C44.2799 20.0567 43.4598 19.5458 42.7606 18.887C42.075 18.2282 41.5372 17.4552 41.1473 16.5678C40.7709 15.6805 40.5826 14.7125 40.5826 13.6638C40.5826 12.6152 40.7709 11.6472 41.1473 10.7598C41.5372 9.8725 42.0817 9.09944 42.7808 8.44067C43.4799 7.78189 44.3 7.271 45.2411 6.908C46.1823 6.545 47.204 6.3635 48.3065 6.3635C49.4224 6.3635 50.4441 6.545 51.3718 6.908C52.3129 7.271 53.1263 7.78189 53.812 8.44067C54.5111 9.09944 55.0556 9.8725 55.4455 10.7598C55.8354 11.6337 56.0303 12.6017 56.0303 13.6638C56.0303 14.7125 55.8354 15.6872 55.4455 16.588C55.0556 17.4753 54.5111 18.2484 53.812 18.9072C53.1263 19.5525 52.3129 20.0567 51.3718 20.4197C50.4441 20.7827 49.4291 20.9642 48.3266 20.9642ZM48.3065 18.1812C48.9384 18.1812 49.5165 18.0736 50.0408 17.8585C50.5786 17.6434 51.0491 17.3342 51.4525 16.9308C51.8558 16.5275 52.165 16.0502 52.3801 15.499C52.6087 14.9478 52.723 14.3361 52.723 13.6638C52.723 12.9916 52.6087 12.3799 52.3801 11.8287C52.165 11.2774 51.8558 10.8002 51.4525 10.3968C51.0626 9.9935 50.5988 9.68428 50.061 9.46917C49.5232 9.25406 48.9384 9.1465 48.3065 9.1465C47.6746 9.1465 47.0898 9.25406 46.552 9.46917C46.0276 9.68428 45.5638 9.9935 45.1605 10.3968C44.7571 10.8002 44.4412 11.2774 44.2126 11.8287C43.9975 12.3799 43.89 12.9916 43.89 13.6638C43.89 14.3226 43.9975 14.9343 44.2126 15.499C44.4412 16.0502 44.7504 16.5275 45.1403 16.9308C45.5436 17.3342 46.0142 17.6434 46.552 17.8585C47.0898 18.0736 47.6746 18.1812 48.3065 18.1812ZM62.2676 20.7222L56.1773 6.6055H59.7065L65.0305 19.1088H62.9533L68.358 6.6055H71.6048L65.4943 20.7222H62.2676ZM72.7835 20.7222V6.6055H76.0505V20.7222H72.7835ZM82.4055 12.2925H89.2016V14.8335H82.4055V12.2925ZM82.6475 18.1005H90.331V20.7222H79.4006V6.6055H90.0688V9.22717H82.6475V18.1005Z" fill="black"/>
<path d="M22.742 36.0835V24.3196H27.145C28.1421 24.3196 28.9992 24.4821 29.7163 24.807C30.4333 25.1207 30.9823 25.58 31.3632 26.185C31.7553 26.7788 31.9514 27.5015 31.9514 28.3529C31.9514 29.182 31.7553 29.8991 31.3632 30.5041C30.9823 31.0978 30.4333 31.5572 29.7163 31.8821C28.9992 32.207 28.1421 32.3695 27.145 32.3695H23.431L23.9856 31.7813V36.0835H22.742ZM23.9856 31.8821L23.431 31.2771H27.1114C28.2878 31.2771 29.1785 31.025 29.7835 30.5209C30.3997 30.0055 30.7078 29.2828 30.7078 28.3529C30.7078 27.4118 30.3997 26.6836 29.7835 26.1682C29.1785 25.6528 28.2878 25.3952 27.1114 25.3952H23.431L23.9856 24.807V31.8821ZM34.6404 36.0835V24.3196H39.0435C40.0406 24.3196 40.8977 24.4821 41.6147 24.807C42.3318 25.1207 42.8807 25.58 43.2617 26.185C43.6538 26.7788 43.8499 27.5015 43.8499 28.3529C43.8499 29.182 43.6538 29.8991 43.2617 30.5041C42.8807 31.0978 42.3318 31.5572 41.6147 31.8821C40.8977 32.1958 40.0406 32.3527 39.0435 32.3527H35.3294L35.884 31.7813V36.0835H34.6404ZM42.6735 36.0835L39.6485 31.8149H40.9929L44.0347 36.0835H42.6735ZM35.884 31.8821L35.3294 31.2939H39.0099C40.1862 31.2939 41.0769 31.0362 41.6819 30.5209C42.2981 30.0055 42.6062 29.2828 42.6062 28.3529C42.6062 27.4118 42.2981 26.6836 41.6819 26.1682C41.0769 25.6528 40.1862 25.3952 39.0099 25.3952H35.3294L35.884 24.807V31.8821ZM51.9276 36.1843C51.0425 36.1843 50.219 36.0387 49.4571 35.7474C48.7065 35.4449 48.0511 35.0247 47.4909 34.487C46.9419 33.938 46.5106 33.305 46.1969 32.5879C45.8944 31.8597 45.7431 31.0642 45.7431 30.2016C45.7431 29.3389 45.8944 28.549 46.1969 27.832C46.5106 27.1037 46.9419 26.4707 47.4909 25.9329C48.0511 25.384 48.7065 24.9638 49.4571 24.6725C50.2078 24.37 51.0313 24.2188 51.9276 24.2188C52.8126 24.2188 53.6305 24.37 54.3812 24.6725C55.1318 24.9638 55.7816 25.3784 56.3306 25.9161C56.8908 26.4539 57.3221 27.0869 57.6246 27.8152C57.9383 28.5434 58.0952 29.3389 58.0952 30.2016C58.0952 31.0642 57.9383 31.8597 57.6246 32.5879C57.3221 33.3162 56.8908 33.9492 56.3306 34.487C55.7816 35.0247 55.1318 35.4449 54.3812 35.7474C53.6305 36.0387 52.8126 36.1843 51.9276 36.1843ZM51.9276 35.0752C52.6334 35.0752 53.2832 34.9575 53.877 34.7222C54.482 34.4758 55.003 34.1341 55.4399 33.6971C55.8881 33.249 56.2354 32.7336 56.4819 32.151C56.7283 31.5572 56.8516 30.9074 56.8516 30.2016C56.8516 29.4957 56.7283 28.8515 56.4819 28.2689C56.2354 27.6751 55.8881 27.1597 55.4399 26.7228C55.003 26.2747 54.482 25.9329 53.877 25.6977C53.2832 25.4512 52.6334 25.3279 51.9276 25.3279C51.2217 25.3279 50.5663 25.4512 49.9613 25.6977C49.3563 25.9329 48.8297 26.2747 48.3816 26.7228C47.9446 27.1597 47.5973 27.6751 47.3396 28.2689C47.0932 28.8515 46.9699 29.4957 46.9699 30.2016C46.9699 30.8962 47.0932 31.5404 47.3396 32.1342C47.5973 32.728 47.9446 33.249 48.3816 33.6971C48.8297 34.1341 49.3563 34.4758 49.9613 34.7222C50.5663 34.9575 51.2217 35.0752 51.9276 35.0752Z" fill="black"/>
<rect width="42.7334" height="12.8729" transform="translate(98.1187 42.7695) rotate(-90)" fill="white"/>
<rect x="101.626" y="36.0474" width="5.8578" height="5.8578" transform="rotate(-90 101.626 36.0474)" fill="black"/>
<rect x="101.48" y="24.3315" width="5.8578" height="6.15069" transform="rotate(-90 101.48 24.3315)" fill="black"/>
<rect x="101.48" y="12.6162" width="5.8578" height="6.15069" transform="rotate(-90 101.48 12.6162)" fill="black"/>
<defs>
<linearGradient id="paint0_linear_49_392" x1="9.42621" y1="-0.366187" x2="73.5681" y2="40.3892" gradientUnits="userSpaceOnUse">
<stop stop-color="#3AE6D0"/>
<stop offset="1" stop-color="#8599FC"/>
</linearGradient>
</defs>
</svg>
